<svg height="511pt" viewBox="-14 1 511 511.99875" width="511pt" xmlns="http://www.w3.org/2000/svg" fill="#ffffff"><path d="m400.65625 290.152344c27.984375-14.847656 39.007812-48.769532 25.097656-77.230469-5.238281-10.71875-5.238281-23.011719 0-33.730469 13.910156-28.460937 2.890625-62.382812-25.097656-77.230468-10.535156-5.59375-17.761719-15.539063-19.824219-27.289063-5.472656-31.199219-34.339843-52.167969-65.695312-47.730469-11.816407 1.667969-23.503907-2.128906-32.078125-10.421875-22.769532-22.027343-58.4375-22.027343-81.207032 0-8.574218 8.292969-20.269531 12.09375-32.078124 10.421875-31.359376-4.441406-60.222657 16.53125-65.699219 47.734375-2.058594 11.746094-9.285157 21.691407-19.824219 27.285157-27.984375 14.847656-39.003906 48.769531-25.09375 77.230468 5.238281 10.71875 5.238281 23.011719 0 33.730469-13.910156 28.460937-2.890625 62.382813 25.09375 77.230469 10.539062 5.59375 17.765625 15.539062 19.824219 27.289062 4.925781 28.082032 28.804687 47.867188 56.394531 48.304688v136.253906c0 3.800781 2.15625 7.273438 5.5625 8.960938s7.472656 1.292968 10.5-1.011719l65.921875-50.28125 65.925781 50.28125c1.773438 1.355469 3.910156 2.050781 6.0625 2.050781 1.511719 0 3.027344-.34375 4.433594-1.039062 3.410156-1.6875 5.5625-5.160157 5.5625-8.960938v-136.257812c27.59375-.441407 51.46875-20.21875 56.394531-48.300782 2.0625-11.75 9.289063-21.695312 19.824219-27.289062zm-220.191406 74.996094c7.964844 1.09375 15.429687 4.683593 21.386718 10.445312 8.777344 8.492188 19.472657 13.695312 30.605469 15.640625v50.90625l-51.992187 39.660156zm71.988281 76.992187v-50.90625c11.132813-1.945313 21.828125-7.148437 30.605469-15.640625 5.957031-5.761719 13.421875-9.351562 21.386718-10.445312v116.652343zm108.683594-128.15625c-3.597657 20.519531-22.570313 34.300781-43.199219 31.390625-17.96875-2.542969-35.742188 3.234375-48.78125 15.847656-14.972656 14.484375-38.429688 14.484375-53.402344 0-11.019531-10.660156-25.425781-16.4375-40.464844-16.4375-2.757812 0-5.535156.195313-8.316406.589844-20.621094 2.914062-39.601562-10.871094-43.199218-31.386719-3.136719-17.871093-14.125-32.996093-30.148438-41.5-18.402344-9.761719-25.652344-32.070312-16.503906-50.785156 7.96875-16.296875 7.96875-34.992187 0-51.292969-9.148438-18.714844-1.898438-41.019531 16.503906-50.785156 16.023438-8.503906 27.015625-23.628906 30.148438-41.496094 3.597656-20.519531 22.5625-34.304687 43.199218-31.386718 17.96875 2.539062 35.742188-3.238282 48.78125-15.851563l-6.949218-7.1875 6.949218 7.1875c14.972656-14.480469 38.429688-14.484375 53.402344 0 13.039062 12.613281 30.8125 18.390625 48.78125 15.851563 20.621094-2.917969 39.597656 10.867187 43.199219 31.386718 3.136719 17.867188 14.125 32.992188 30.148437 41.496094 18.402344 9.765625 25.652344 32.070312 16.503906 50.785156-7.96875 16.300782-7.96875 34.996094 0 51.292969 9.148438 18.714844 1.898438 41.023437-16.503906 50.789063-16.023437 8.5-27.011718 23.625-30.148437 41.492187zm0 0"/><path d="m183.285156 75.78125c-4.953125 2.4375-6.992187 8.429688-4.554687 13.386719 2.4375 4.953125 8.425781 6.996093 13.382812 4.554687 43.796875-21.546875 96.421875-12.820312 130.957031 21.71875 44.453126 44.449219 44.453126 116.78125 0 161.234375-22.226562 22.226563-51.417968 33.339844-80.617187 33.335938-29.191406 0-58.390625-11.113281-80.617187-33.335938-34.535157-34.535156-43.261719-87.160156-21.71875-130.953125 2.4375-4.953125.398437-10.945312-4.558594-13.382812-4.957032-2.441406-10.945313-.398438-13.382813 4.554687-25.324219 51.476563-15.066406 113.328125 25.519531 153.917969 26.125 26.125 60.441407 39.1875 94.757813 39.1875s68.632813-13.0625 94.753906-39.1875c52.25-52.25 52.25-137.265625 0-189.511719-40.585937-40.59375-102.445312-50.847656-153.921875-25.519531zm0 0"/><path d="m152.035156 167.816406c-2.417968 7.464844.230469 15.574219 6.59375 20.175782l34.851563 25.207031-13.351563 40.789062c-2.441406 7.46875.183594 15.589844 6.542969 20.210938 6.355469 4.617187 14.894531 4.609375 21.242187-.023438l34.667969-25.304687 34.667969 25.304687c3.183594 2.320313 6.910156 3.480469 10.636719 3.480469 3.71875 0 7.433593-1.152344 10.605469-3.457031 6.355468-4.617188 8.984374-12.738281 6.542968-20.207031l-13.351562-40.792969 34.851562-25.207031c6.359375-4.601563 9.011719-12.707032 6.59375-20.175782-2.417968-7.46875-9.316406-12.484375-17.164062-12.484375h-43.035156l-13.179688-40.769531c-2.417969-7.472656-9.316406-12.492188-17.167969-12.492188-7.851562 0-14.75 5.019532-17.167969 12.492188l-13.179687 40.765625h-43.035156c-7.847657.003906-14.746094 5.019531-17.164063 12.488281zm67.476563 7.511719c4.335937 0 8.179687-2.796875 9.515625-6.925781l13.554687-41.9375 13.554688 41.9375c1.335937 4.128906 5.179687 6.925781 9.515625 6.925781h44.273437l-35.875 25.945313c-3.523437 2.546874-4.996093 7.078124-3.644531 11.210937l13.738281 41.964844-35.667969-26.03125c-3.511718-2.5625-8.277343-2.5625-11.789062 0l-35.667969 26.03125 13.738281-41.964844c1.351563-4.132813-.121093-8.664063-3.644531-11.210937l-35.878906-25.945313zm0 0"/><path d="m154.769531 118.371094c2.632813 0 5.210938-1.070313 7.070313-2.929688s2.929687-4.441406 2.929687-7.070312c0-2.640625-1.070312-5.207032-2.929687-7.066406-1.859375-1.859376-4.4375-2.929688-7.070313-2.929688-2.636719 0-5.207031 1.070312-7.066406 2.929688-1.871094 1.859374-2.929687 4.425781-2.929687 7.066406 0 2.628906 1.058593 5.210937 2.929687 7.070312 1.859375 1.859375 4.4375 2.929688 7.066406 2.929688zm0 0"/><path d="m50.488281 34.5c5.523438 0 10-4.476562 10-9.996094v-14.414062c0-5.519532-4.476562-9.996094-10-9.996094-5.519531 0-9.996093 4.476562-9.996093 9.996094v14.414062c0 5.519532 4.476562 9.996094 9.996093 9.996094zm0 0"/><path d="m60.488281 90.078125v-14.414063c0-5.523437-4.476562-10-10-10-5.519531 0-9.996093 4.476563-9.996093 10v14.414063c0 5.519531 4.476562 9.996094 9.996093 9.996094 5.523438 0 10-4.476563 10-9.996094zm0 0"/><path d="m76.070312 60.082031h14.414063c5.519531 0 9.996094-4.476562 9.996094-10 0-5.519531-4.476563-9.996093-9.996094-9.996093h-14.414063c-5.519531 0-9.996093 4.476562-9.996093 9.996093 0 5.523438 4.476562 10 9.996093 10zm0 0"/><path d="m24.910156 40.085938h-14.414062c-5.519532 0-9.996094 4.476562-9.996094 9.996093 0 5.523438 4.476562 10 9.996094 10h14.414062c5.519532 0 9.996094-4.476562 9.996094-10 0-5.519531-4.476562-9.996093-9.996094-9.996093zm0 0"/><path d="m434.417969 412.015625c-5.519531 0-9.996094 4.476563-9.996094 10v14.410156c0 5.523438 4.476563 10 9.996094 10 5.523437 0 10-4.476562 10-10v-14.410156c0-5.523437-4.476563-10-10-10zm0 0"/><path d="m434.417969 477.589844c-5.519531 0-9.996094 4.476562-9.996094 10v14.410156c0 5.523438 4.476563 10 9.996094 10 5.523437 0 10-4.476562 10-10v-14.410156c0-5.523438-4.476563-10-10-10zm0 0"/><path d="m474.414062 452.007812h-14.414062c-5.519531 0-9.996094 4.476563-9.996094 10 0 5.523438 4.476563 10 9.996094 10h14.414062c5.519532 0 9.996094-4.476562 9.996094-10 0-5.523437-4.476562-10-9.996094-10zm0 0"/><path d="m408.839844 452.007812h-14.414063c-5.519531 0-9.996093 4.476563-9.996093 10 0 5.523438 4.476562 10 9.996093 10h14.414063c5.519531 0 9.996094-4.476562 9.996094-10 0-5.523437-4.476563-10-9.996094-10zm0 0"/></svg>