<svg id="Capa_1" enable-background="new 0 0 512 512" height="512" viewBox="0 0 512 512" width="512" xmlns="http://www.w3.org/2000/svg"><g><g><path d="m303.079 158.956h198.921v-65.322c0-17.322-14.043-31.365-31.365-31.365h-69.429v16.919c0 12.737-9.905 23.586-22.634 24.038-13.364.475-24.348-10.218-24.348-23.476v-17.481h-190.53v16.919c0 12.738-9.905 23.586-22.634 24.039-13.364.475-24.347-10.218-24.347-23.476v-17.482h-75.348c-17.322 0-31.365 14.043-31.365 31.365v65.322h204.97" fill="#ff7a7a"/><path d="m214.966 159.067h-204.966v301.808c0 17.322 14.043 31.365 31.365 31.365h429.27c17.322 0 31.365-14.043 31.365-31.365v-301.808h-198.922" fill="#f9f5f3"/><path d="m140.24 103.245h-.076c-12.954 0-23.455-10.501-23.455-23.455v-36.573c0-12.955 10.502-23.457 23.457-23.457h.072c12.955 0 23.457 10.502 23.457 23.457v36.573c0 12.954-10.501 23.455-23.455 23.455z" fill="#ffd88a"/><path d="m377.753 103.245h-.076c-12.954 0-23.455-10.501-23.455-23.455v-36.573c0-12.955 10.502-23.457 23.457-23.457h.072c12.955 0 23.457 10.502 23.457 23.457v36.573c-.001 12.954-10.502 23.455-23.455 23.455z" fill="#ffd88a"/><g fill="#bedaff"><path d="m84.15 225.241h113.9v99.908h-113.9z"/><path d="m198.05 225.241h113.9v99.908h-113.9z"/><path d="m311.95 225.241h113.9v99.908h-113.9z"/><path d="m84.15 325.148h113.9v99.908h-113.9z"/><path d="m198.05 325.148h113.9v99.908h-113.9z"/></g></g><g><g><path d="m512 93.634c0-22.809-18.557-41.365-41.365-41.365h-59.428v-9.052c0-18.448-15.009-33.457-33.528-33.457-18.448 0-33.457 15.009-33.457 33.457v9.052h-170.527v-9.052c0-18.448-15.009-33.457-33.529-33.457-18.448 0-33.457 15.009-33.457 33.457v9.052h-65.344c-22.809 0-41.365 18.556-41.365 41.365v65.323c0 .019.003.037.003.055 0 .019-.003.037-.003.055v301.808c0 22.809 18.556 41.365 41.365 41.365h429.27c22.809 0 41.365-18.556 41.365-41.365v-301.808c0-.019-.003-.037-.003-.055 0-.019.003-.037.003-.055zm-134.249-63.874c7.42 0 13.456 6.037 13.456 13.457l-.001 35.971c0 7.638-6.358 14.416-14.153 14.026-7.085-.329-12.828-6.363-12.828-13.463l-.003-36.534c0-7.421 6.037-13.457 13.529-13.457zm-237.513 0c7.42 0 13.457 6.037 13.457 13.457v35.971c0 7.623-6.325 14.378-14.099 14.029-7.11-.3-12.882-6.346-12.882-13.466l-.004-36.534c-.001-7.421 6.036-13.457 13.528-13.457zm351.762 431.115c0 11.781-9.584 21.365-21.365 21.365h-429.27c-11.781 0-21.365-9.584-21.365-21.365v-291.808h194.966c5.523 0 10-4.477 10-10 0-.006-.001-.011-.001-.017 0-.032.005-.062.005-.094 0-5.523-4.477-10-10-10h-194.97v-55.322c0-11.781 9.584-21.365 21.365-21.365h65.344v7.521c0 9.311 3.997 18.387 10.88 24.656 6.26 5.702 14.223 8.657 22.65 8.798 13.804 0 26.518-8.854 31.351-21.775 1.394-3.728 2.104-7.7 2.104-11.679v-7.521h170.527v7.521c0 9.311 3.995 18.393 10.885 24.661 6.262 5.697 14.216 8.652 22.646 8.794 13.803 0 26.516-8.854 31.349-21.773 1.395-3.728 2.105-7.701 2.105-11.681v-7.521h59.428c11.781 0 21.365 9.584 21.365 21.365v55.323h-188.92c-5.522 0-10 4.477-10 10 0 .015.002.03.002.046 0 .022-.003.043-.003.065 0 5.523 4.478 10 10 10h188.922z"/><path d="m84.15 215.241c-5.523 0-10 4.477-10 10v99.908 99.908c0 5.523 4.477 10 10 10h113.9 113.899c5.522 0 10-4.477 10-10v-89.908h103.9c5.522 0 10-4.477 10-10v-99.908c0-5.523-4.478-10-10-10h-113.9-113.899zm10 20h93.899v79.908h-93.899zm0 99.907h93.899v79.908h-93.899zm207.799 79.908h-93.899v-79.908h93.899zm113.901-99.908h-93.9v-79.908h93.9zm-113.901 0h-93.899v-79.908h93.899z"/><path d="m250.31 162.89c3.357 8.195 15.391 8 18.558-.228 3.258-8.462-6.048-16.686-14.031-12.414-4.466 2.391-6.48 7.957-4.527 12.642z"/></g></g></g></svg>