<svg id="Layer_1" enable-background="new 0 0 512 512" height="512" viewBox="0 0 512 512" width="512" xmlns="http://www.w3.org/2000/svg" fill="#ffffff"><g><circle cx="321.43" cy="10" r="10"/><path d="m465.722 243.199c2.251-4.418 3.528-9.41 3.528-14.699 0-17.921-14.58-32.5-32.5-32.5h-25.16s12.97-123.641 12.97-126.101c-.01-8.22-1.44-16.279-4.25-23.96-2.73-7.449-6.68-14.34-11.75-20.479-5.05-6.12-11.05-11.3-17.82-15.4-6.94-4.2-14.49-7.13-22.44-8.71-.65-.13-1.31-.2-1.97-.2-4.74 0-8.86 3.391-9.79 8.051-.52 2.619.01 5.29 1.49 7.51 1.49 2.22 3.75 3.729 6.37 4.25 23.3 4.62 40.19 25.2 40.16 48.939 0 1.79-13.087 126.101-13.087 126.101h-.223c-27.57 0-50 22.43-50 50v37h-170v-37c0-27.57-22.43-50-50-50h-.222s-13.088-124.32-13.088-126.101c0-13.21 5.17-25.699 14.55-35.149 9.45-9.51 22.05-14.74 35.46-14.75h118.48c5.51 0 10-4.49 10-10s-4.49-10-10-10h-118.48c-9.53.01-18.75 1.88-27.42 5.569-8.33 3.54-15.81 8.62-22.23 15.08-6.39 6.431-11.41 13.91-14.91 22.23-3.62 8.58-5.45 17.67-5.45 27.02 0 2.49 12.97 126.1 12.97 126.1h-25.16c-17.92 0-32.5 14.579-32.5 32.5 0 5.289 1.278 10.281 3.528 14.699-26.773 7.261-46.778 31.761-46.778 60.801 0 32.739 19.25 57.428 47.25 62.173v135.827c0 5.522 4.977 10 10.5 10h75c5.523 0 9.5-4.478 9.5-10v-30h227v30c0 5.522 4.977 10 10.5 10h75c5.523 0 9.5-4.478 9.5-10v-135.827c29-4.745 47.75-29.434 47.75-62.173 0-29.04-19.505-53.54-46.278-60.801zm-104.472 2.801c0-16.542 13.458-30 30-30h45.5c6.893 0 12.5 5.607 12.5 12.5s-5.607 12.5-12.5 12.5h-20.5c-16.542 0-30 13.458-30 30v16.306c-5.586-2.752-11.864-4.306-18.5-4.306h-6.5zm6.5 57c7.755 0 14.581 4.037 18.5 10.117v13.883c0 11.028-8.972 20-20 20h-220c-11.028 0-20-8.972-20-20v-13.883c3.919-6.08 10.745-10.117 18.5-10.117zm-292-87h45.5c16.542 0 30 13.458 30 30v37h-6.5c-6.636 0-12.914 1.553-18.5 4.306v-16.306c0-16.542-13.458-30-30-30h-20.5c-6.893 0-12.5-5.607-12.5-12.5s5.607-12.5 12.5-12.5zm46.5 276h-55v-20h55zm247-40h-227v-20h227zm75 40h-55v-20h55zm10.25-145c-5.523 0-10.25 4.478-10.25 10v95h-55v-30c0-5.522-3.977-10-9.5-10h-247c-5.523 0-10.5 4.478-10.5 10v30h-55v-95c0-5.522-4.227-10-9.75-10-25.765 0-37.375-22.29-37.375-43 0-23.71 19.415-43 43.125-43h33c5.514 0 10 4.486 10 10v37.238c-2.246 5.138-3.5 10.805-3.5 16.762 0 23.159 18.841 42 42 42h223c23.159 0 42-18.841 42-42 0-5.957-1.254-11.624-3.5-16.762v-37.238c0-5.514 4.486-10 10-10h33c23.71 0 42.875 19.29 42.875 43 0 20.71-11.86 43-37.625 43z"/><circle cx="288.75" cy="62" r="10"/><circle cx="353.75" cy="62" r="10"/><circle cx="158.75" cy="62" r="10"/><circle cx="223.75" cy="62" r="10"/><circle cx="158.75" cy="152" r="10"/><circle cx="223.75" cy="152" r="10"/><circle cx="288.75" cy="152" r="10"/><circle cx="353.75" cy="152" r="10"/><circle cx="256.25" cy="107" r="10"/><circle cx="321.25" cy="107" r="10"/><circle cx="191.25" cy="107" r="10"/><circle cx="321.25" cy="197" r="10"/><circle cx="256.25" cy="197" r="10"/><circle cx="191.25" cy="197" r="10"/><circle cx="223.75" cy="242" r="10"/><circle cx="288.75" cy="242" r="10"/></g></svg>