<svg xmlns="http://www.w3.org/2000/svg" viewBox="0 0 347.09 342.21"><g id="Layer_2" data-name="Layer 2"><g id="Layer_1-2" data-name="Layer 1"><path d="M271.13,159.41c0-.78,0-91.63,0-91.63L135.58,0,0,67.78v89.79a167.84,167.84,0,0,0,74.87,139.9l60.71,40.46,46.77-31.15a92.12,92.12,0,1,0,88.78-147.37ZM135.58,324.91,80.89,288.46a157,157,0,0,1-70-130.89V74.49L135.58,12.12,260.31,74.49v83.68c-1.8-.11-3.58-.27-5.42-.27s-3.63.16-5.42.27v-77L135.58,24.24,21.69,81.18v76.39A146.23,146.23,0,0,0,86.91,279.43l48.67,32.42,35.48-23.63a92.5,92.5,0,0,0,5.13,9.63Zm31.42-47h0l-31.42,20.94L92.93,270.41c-2.11-1.41-4.15-2.88-6.16-4.4V217.55H75.92v39.36a135.17,135.17,0,0,1-16.26-18.05V207.34A16.27,16.27,0,0,1,72,191.57l36.78-9.22a27.09,27.09,0,0,0,21.42,23.81v22.23H141V206.16a27.08,27.08,0,0,0,21.42-23.81l24.14,6.06A91.74,91.74,0,0,0,167,277.89ZM108.46,114.52h15a57.15,57.15,0,0,0,24.22-5.43h1.47l13.56,18.08v22.59l-18.08,13.56H126.54l-18.08-13.56ZM98.07,103.67A21.23,21.23,0,0,1,109.68,88a54.79,54.79,0,0,1,38.09-2.4L149,87.4h8.26a5.43,5.43,0,0,1,5.43,5.43v16.26l-8.14-10.84h-9.41l-1.15.57a46.2,46.2,0,0,1-20.55,4.85Zm53.78,67.78v8.14a16.27,16.27,0,1,1-32.54,0v-8.14l3.62,2.71h25.3Zm10.85-.21v-7.92l10.84-8.13V92.83a16.26,16.26,0,0,0-16.27-16.27h-3.6c-7.85-4.77-27.38-5.74-41.22-1.41a33.76,33.76,0,0,0-25.68,33.94v5.43H97.62v40.67l10.84,8.13v7.9l-39.14,9.84a27.06,27.06,0,0,0-20.51,26.28V222a135.42,135.42,0,0,1-16.27-64.42V87.88l103-51.52,103,51.52v69.69c0,.62,0,1.24,0,1.86a91.79,91.79,0,0,0-42.91,20.1Zm92.19,160.18a81.34,81.34,0,1,1,81.35-81.34A81.35,81.35,0,0,1,254.89,331.42ZM282,92.83v10.84h65.08V92.83Zm43.38,21.69H282v10.84h43.38ZM303.7,136.21H282v10.84H303.7Zm-68.78,110-19.17-19.17-30.68,30.67,49.85,49.85,84.37-84.36-30.68-30.67Zm69-23-69,69-34.51-34.51,15.34-15.34,19.17,19.17,53.69-53.68Z" fill="#ffffff"/></g></g></svg>